<svg xmlns="http://www.w3.org/2000/svg" viewBox="0 0 256 256" width="256" height="256">
  <!-- Background card -->
  <rect width="256" height="256" rx="20" fill="#1E1E2E"/>
  <!-- Top gold accent stripe -->
  <rect x="0" y="0" width="256" height="6" fill="#D4A843"/>
  <!-- Centered glyph (in gold) -->
  <g transform="translate(128, 128)" fill="#D4A843" stroke="#D4A843">
    
    <!-- Map with location pin -->
    <g fill="none" stroke="#D4A843" stroke-width="6" stroke-linecap="round" stroke-linejoin="round">
      <path d="M -64 -50 L -22 -64 L 22 -50 L 64 -64 L 64 50 L 22 64 L -22 50 L -64 64 Z"/>
      <line x1="-22" y1="-64" x2="-22" y2="50"/>
      <line x1="22" y1="-50" x2="22" y2="64"/>
    </g>
    <!-- Location pin overlay -->
    <g transform="translate(0, -10)" fill="#F0C75E" stroke="#F0C75E" stroke-width="2">
      <path d="M 0 -28 C -14 -28 -22 -18 -22 -6 C -22 8 0 28 0 28 C 0 28 22 8 22 -6 C 22 -18 14 -28 0 -28 Z"/>
      <circle cx="0" cy="-8" r="6" fill="#1E1E2E" stroke="none"/>
    </g>
  
  </g>
</svg>