<svg xmlns="http://www.w3.org/2000/svg" viewBox="0 0 512 512" width="512" height="512">
  <rect width="512" height="512" fill="#12121A"/>
  <rect x="0" y="0" width="512" height="6" fill="#D4A843"/>
  <!-- Network graph -->
  <g opacity="0.2">
    <line x1="160" y1="140" x2="256" y2="200" stroke="#D4A843" stroke-width="1.5"/>
    <line x1="352" y1="140" x2="256" y2="200" stroke="#D4A843" stroke-width="1.5"/>
    <line x1="160" y1="260" x2="256" y2="200" stroke="#D4A843" stroke-width="1.5"/>
    <line x1="352" y1="260" x2="256" y2="200" stroke="#D4A843" stroke-width="1.5"/>
    <line x1="160" y1="140" x2="160" y2="260" stroke="#D4A843" stroke-width="1.5"/>
    <line x1="352" y1="140" x2="352" y2="260" stroke="#D4A843" stroke-width="1.5"/>
    <line x1="160" y1="140" x2="352" y2="140" stroke="#D4A843" stroke-width="1.5"/>
    <line x1="160" y1="260" x2="352" y2="260" stroke="#D4A843" stroke-width="1.5"/>
    <line x1="100" y1="200" x2="160" y2="140" stroke="#D4A843" stroke-width="1.5"/>
    <line x1="100" y1="200" x2="160" y2="260" stroke="#D4A843" stroke-width="1.5"/>
    <line x1="412" y1="200" x2="352" y2="140" stroke="#D4A843" stroke-width="1.5"/>
    <line x1="412" y1="200" x2="352" y2="260" stroke="#D4A843" stroke-width="1.5"/>
  </g>
  <g opacity="0.6">
    <circle cx="100" cy="200" r="6" fill="#D4A843"/>
    <circle cx="160" cy="140" r="8" fill="#D4A843"/>
    <circle cx="160" cy="260" r="8" fill="#D4A843"/>
    <circle cx="256" cy="200" r="11" fill="#F0C75E"/>
    <circle cx="352" cy="140" r="8" fill="#D4A843"/>
    <circle cx="352" cy="260" r="8" fill="#D4A843"/>
    <circle cx="412" cy="200" r="6" fill="#D4A843"/>
  </g>
  <!-- Title -->
  <text x="256" y="350" font-family="Georgia, 'Times New Roman', serif" font-size="36" fill="#D4A843" text-anchor="middle" font-weight="bold">Crowd-Sourced</text>
  <text x="256" y="395" font-family="Georgia, 'Times New Roman', serif" font-size="36" fill="#D4A843" text-anchor="middle" font-weight="bold">Truth</text>
  <text x="256" y="435" font-family="Calibri, Arial, sans-serif" font-size="16" fill="#8B8DA0" text-anchor="middle">A Practitioner's Field Guide</text>
  <rect x="0" y="506" width="512" height="6" fill="#D4A843"/>
</svg>